<svg width="78" height="78" viewBox="0 0 78 78" fill="none" xmlns="http://www.w3.org/2000/svg">
<g clip-path="url(#clip0_7451_1840)">
<g opacity="0.8">
<g clip-path="url(#clip1_7451_1840)">
<rect x="0.5" y="0.5" width="77.5" height="77.5" rx="15.5" fill="#292929"/>
<path d="M1.24435 57.7654C1.24435 55.4586 6.14568 54.3835 9.45839 54.3835C10.398 54.3835 11.9754 54.5726 11.9754 55.8367C11.9754 58.3096 6.8767 59.659 4.25708 59.659C2.86698 59.659 1.24435 59.1627 1.24435 57.7654ZM13.6399 55.8367C13.6399 54.3295 12.5414 52.7191 9.45839 52.7191C6.04141 52.7191 -0.420625 53.7741 -0.420625 57.7654C-0.420625 59.8938 1.4596 61.3235 4.25708 61.3235C7.52853 61.3235 13.6399 59.7142 13.6399 55.8367ZM-9.40137 72.6835C-5.14185 74.2119 1.31796 75.7971 9.79127 75.7971C23.1391 75.7971 40.8848 74.2275 40.8848 60.6566C40.8848 55.4675 37.6284 53.1741 35.0116 51.3312C32.7104 49.7103 31.2924 48.6057 31.1469 46.4065C31.051 44.9567 31.7335 43.6419 32.5247 42.1202C33.4118 40.4134 34.4172 38.4791 34.4172 36.0329C34.4172 32.7129 31.9548 29.1392 26.5489 29.1392C22.2537 29.1392 18.2914 30.8187 14.0971 32.5975C8.70286 34.8848 2.58764 37.4776 -6.05351 37.4776C-7.24734 37.4776 -8.35977 37.3962 -9.40137 37.2512V28.106C-7.42246 28.3519 -5.43027 28.4754 -3.43615 28.4757C6.90235 28.4757 14.1501 24.9896 20.5446 21.9139C25.9913 19.2937 31.1357 16.8196 37.4238 16.8196C46.1157 16.8196 50.6629 21.7438 50.6629 26.6077C50.6629 29.8753 48.9678 31.8654 47.1735 33.9714C45.3244 36.1416 43.4124 38.386 43.4124 42.026C43.4124 45.5194 44.7847 47.3968 46.1118 49.2124C47.6608 51.3312 49.2628 53.5232 49.2628 58.7289C49.2628 68.6632 39.8583 74.8124 30.6935 78.4463H-9.40137V72.6835ZM-9.40137 64.5023C-5.29674 65.9809 -0.967202 66.7379 3.3956 66.74C10.9466 66.74 23.6142 65.0739 23.6142 53.9168C23.6142 50.6348 20.9785 46.0117 15.1181 46.0117C11.173 46.0117 8.06439 47.0489 5.05836 48.052C2.00048 49.0718 -0.88734 50.0354 -4.67513 50.0354C-6.32953 50.0354 -7.9148 49.7504 -9.40137 49.2971V40.9448C-8.2902 41.0752 -7.17231 41.1402 -6.05351 41.1394C3.3326 41.1394 10.0935 38.2728 15.5262 35.9693C19.5354 34.2692 22.9975 32.801 26.5489 32.801C29.6497 32.801 30.7549 34.4705 30.7549 36.0329C30.7549 37.5841 30.0361 38.967 29.275 40.4318C28.3628 42.1871 27.329 44.1766 27.4923 46.6491C27.7617 50.7039 30.4928 52.6277 32.9022 54.325C35.3161 56.0251 37.2225 57.3673 37.2225 60.6566C37.2225 65.5841 34.3787 72.1348 9.79127 72.1348C0.948824 72.1348 -5.56451 70.2696 -9.40137 68.7513V64.5023ZM-9.40137 51.0457C-7.90532 51.4561 -6.32396 51.7004 -4.67513 51.7004C-0.616904 51.7004 2.53634 50.6482 5.5853 49.6311C8.59802 48.6258 11.4429 47.6767 15.1181 47.6767C20.2798 47.6767 21.9498 51.881 21.9498 53.9168C21.9498 61.217 15.534 65.0756 3.3956 65.0756C-1.80515 65.0756 -6.21244 63.9169 -9.40137 62.7063V51.0457ZM-9.40137 19.2491C-7.90041 19.5828 -6.36776 19.7533 -4.83015 19.7576C4.8961 19.7576 12.373 15.6838 20.2887 11.3713C28.2713 7.02198 36.5261 2.52493 47.4121 2.52493C52.4523 2.52493 56.7469 3.9825 59.8305 6.74039C62.8248 9.418 64.4078 13.0669 64.4078 17.2924C64.4078 21.7259 61.6856 25.7156 58.8039 29.9389C55.6724 34.5296 52.4333 39.2759 52.4333 45.0342C52.4333 57.2335 62.319 64.373 79.6231 64.7611V69.1466C79.5487 69.1527 79.4755 69.169 79.4056 69.1951C66.8551 74.039 58.7437 65.3951 58.3801 64.9902C58.3017 64.8808 58.198 64.792 58.0778 64.7315C57.9575 64.671 57.8244 64.6405 57.6898 64.6427C57.5553 64.6449 57.4232 64.6797 57.305 64.7441C57.1868 64.8085 57.086 64.9006 57.0112 65.0126C56.9158 65.1582 56.8695 65.3305 56.8791 65.5044H56.8729C56.8729 65.5272 56.8122 67.8892 54.7418 71.3698C53.6082 73.2762 51.699 75.7715 48.5251 78.4463H34.9558C36.8757 77.5385 38.9343 76.4244 40.9004 75.0839C47.5537 70.5462 50.9272 65.0438 50.9272 58.7289C50.9272 52.9795 49.0827 50.4564 47.4556 48.2299C46.1792 46.484 45.0769 44.9757 45.0769 42.026C45.0769 38.9988 46.7107 37.0812 48.4403 35.0509C50.3512 32.8083 52.3274 30.4887 52.3274 26.6077C52.3274 20.9163 47.208 15.1546 37.4238 15.1546C30.756 15.1546 25.4454 17.709 19.8231 20.4133C13.2841 23.5588 6.52262 26.8107 -3.43615 26.8107C-5.69555 26.8107 -7.72689 26.6406 -9.40137 26.4232V19.2491ZM-9.40137 3.70926C-7.48879 5.02353 -4.65338 6.14376 -0.529362 6.14376C8.74913 6.14376 15.6796 2.00301 23.0171 -2.38141C30.4739 -6.83665 38.1844 -11.4436 48.7431 -11.4436C58.301 -11.4436 66.5613 -8.07843 73.2937 -1.44242C76.4565 1.67514 78.5185 4.82168 79.6231 6.74931V16.7449C79.6045 16.8037 79.589 16.8634 79.5768 16.9239C79.1837 18.8331 76.1537 21.2988 72.9458 23.909C66.8429 28.875 59.2472 35.0548 59.2823 44.703C59.2968 48.7612 61.0137 52.4241 63.9924 54.7527C66.7709 56.924 70.1979 57.6505 73.5391 57.6505C75.6658 57.65 77.7557 57.3544 79.6231 56.9519V63.0972C63.3768 62.7203 54.0983 56.1852 54.0983 45.0342C54.0983 39.79 57.1897 35.2589 60.179 30.8773C63.0763 26.6306 66.0722 22.2395 66.0722 17.2924C66.0722 7.6175 58.3986 0.859926 47.4121 0.859926C36.1017 0.859926 27.6585 5.46014 19.4924 9.90981C11.768 14.118 4.47176 18.0926 -4.83015 18.0926C-6.45333 18.0926 -7.98952 17.8751 -9.40137 17.5395V3.70926ZM79.6231 29.7476C78.5491 30.6336 77.5154 31.4332 76.5156 32.2061C72.1925 35.5461 68.7783 38.1847 68.7783 43.0849C68.7783 45.3359 69.637 47.079 71.2602 48.125C72.5661 48.9665 74.2149 49.2821 75.881 49.2821C77.1691 49.2821 78.4655 49.0925 79.6231 48.812V53.1953C73.7883 54.6032 69.1636 54.1466 66.2479 51.8671C64.1591 50.2344 62.9547 47.6182 62.9447 44.6896C62.9157 36.7912 69.4719 31.4561 75.2571 26.7494C76.8529 25.4507 78.3557 24.2251 79.6231 23.0106V29.7476ZM79.6231 47.0907C77.2165 47.7347 74.0599 47.9477 72.1618 46.726C71.0054 45.9805 70.4433 44.7894 70.4433 43.0849C70.4433 39.0021 73.417 36.7037 77.5332 33.5231C78.2341 32.9838 78.9308 32.439 79.6231 31.8888V47.0907ZM79.6231 78.4463H51.0566C56.0956 73.7524 57.7428 69.4979 58.2759 67.1833C59.366 68.1273 61.1832 69.4756 63.6746 70.569C67.193 72.113 72.793 73.3994 79.6231 70.8897V78.4463Z" fill="white"/>
</g>
</g>
</g>
<defs>
<clipPath id="clip0_7451_1840">
<rect width="77.5" height="77.5" fill="white" transform="translate(0.5 0.5)"/>
</clipPath>
<clipPath id="clip1_7451_1840">
<rect x="0.5" y="0.5" width="77.5" height="77.5" rx="15.5" fill="white"/>
</clipPath>
</defs>
</svg>
