<svg width="20" height="20" viewBox="0 0 20 20" fill="none" xmlns="http://www.w3.org/2000/svg">
<path d="M11.8101 17.4094C15.296 17.1777 18.0726 14.3617 18.3011 10.8264C18.3458 10.1346 18.3458 9.41807 18.3011 8.72623C18.0726 5.19097 15.296 2.37493 11.8101 2.14321C10.6209 2.06416 9.3793 2.06433 8.19247 2.14321C4.70662 2.37493 1.92998 5.19097 1.7015 8.72623C1.65679 9.41807 1.65679 10.1346 1.7015 10.8264C1.78472 12.114 2.35416 13.3062 3.02456 14.3128C3.41381 15.0176 3.15692 15.8972 2.75147 16.6655C2.45914 17.2195 2.31297 17.4965 2.43033 17.6966C2.5477 17.8967 2.80985 17.9031 3.33416 17.9158C4.37102 17.9411 5.0702 17.6471 5.6252 17.2378C5.93997 17.0057 6.09736 16.8897 6.20583 16.8763C6.3143 16.863 6.52778 16.9509 6.95464 17.1267C7.3383 17.2847 7.78377 17.3822 8.19247 17.4094C9.3793 17.4883 10.6209 17.4885 11.8101 17.4094Z" stroke="#326543" stroke-width="1.5" stroke-linejoin="round"/>
<path d="M9.99759 10H10.005M13.3272 10H13.3347M6.66797 10H6.67544" stroke="#326543" stroke-width="1.5" stroke-linecap="round" stroke-linejoin="round"/>
</svg>
