<svg width="20" height="21" viewBox="0 0 20 21" fill="none" xmlns="http://www.w3.org/2000/svg">
<path d="M4.23521 13.0979C3.21998 13.7121 0.558115 14.9664 2.17937 16.5359C2.97134 17.3026 3.85339 17.8509 4.96234 17.8509H11.2903C12.3992 17.8509 13.2813 17.3026 14.0732 16.5359C15.6945 14.9664 13.0326 13.7121 12.0174 13.0979C9.63672 11.6575 6.6159 11.6575 4.23521 13.0979Z" fill="white" stroke="white" stroke-width="1.5" stroke-linecap="round" stroke-linejoin="round"/>
<path d="M11.2487 6.1849C11.2487 8.02585 9.75628 9.51823 7.91536 9.51823C6.07441 9.51823 4.58203 8.02585 4.58203 6.1849C4.58203 4.34395 6.07441 2.85156 7.91536 2.85156C9.75628 2.85156 11.2487 4.34395 11.2487 6.1849Z" fill="white" stroke="white" stroke-width="1.5"/>
<path d="M14.168 4.51758H18.3346" stroke="white" stroke-width="1.5" stroke-linecap="round" stroke-linejoin="round"/>
<path d="M14.168 7.01758H18.3346" stroke="white" stroke-width="1.5" stroke-linecap="round" stroke-linejoin="round"/>
<path d="M16.668 9.51758H18.3346" stroke="white" stroke-width="1.5" stroke-linecap="round" stroke-linejoin="round"/>
</svg>
